<?xml version="1.0" encoding="utf-8"?>
<!-- Generator: Adobe Illustrator 24.0.2, SVG Export Plug-In . SVG Version: 6.00 Build 0)  -->
<svg version="1.1" id="Layer_1" xmlns="http://www.w3.org/2000/svg" xmlns:xlink="http://www.w3.org/1999/xlink" x="0px" y="0px"
	 viewBox="0 0 269.3 70.9" style="enable-background:new 0 0 269.3 70.9;" xml:space="preserve">
<style type="text/css">
	.st0{fill:#2B303B;}
	.st1{clip-path:url(#SVGID_2_);fill:#0D83A4;}
	.st2{clip-path:url(#SVGID_4_);}
	
		.st3{opacity:0.29;clip-path:url(#SVGID_6_);fill:none;stroke:#FFFFFF;stroke-width:0.5;stroke-miterlimit:10;enable-background:new    ;}
	.st4{clip-path:url(#SVGID_8_);fill:#348CA5;}
	.st5{clip-path:url(#SVGID_10_);fill:#0F6599;}
	.st6{clip-path:url(#SVGID_12_);fill:#0C73A1;}
	.st7{clip-path:url(#SVGID_14_);fill:#0C83AE;}
	.st8{clip-path:url(#SVGID_16_);fill:#30A5BF;}
	.st9{clip-path:url(#SVGID_18_);fill:#35A8BB;}
	.st10{clip-path:url(#SVGID_20_);fill:#199BBA;}
	.st11{clip-path:url(#SVGID_22_);fill:#3EAEC3;}
	.st12{clip-path:url(#SVGID_24_);fill:#7CC0C6;}
	.st13{clip-path:url(#SVGID_26_);fill:#0D83A4;}
	.st14{clip-path:url(#SVGID_28_);fill:#188EB0;}
	.st15{clip-path:url(#SVGID_30_);fill:#1E90AD;}
	.st16{clip-path:url(#SVGID_32_);fill:#187CA0;}
	.st17{clip-path:url(#SVGID_34_);fill:#97CBC9;}
	.st18{clip-path:url(#SVGID_36_);fill:#50ADBD;}
	.st19{clip-path:url(#SVGID_38_);fill:#58AFBA;}
	.st20{clip-path:url(#SVGID_40_);fill:#ABD2CE;}
	.st21{clip-path:url(#SVGID_42_);fill:#7DC3CB;}
	.st22{clip-path:url(#SVGID_44_);fill:#C0DDD8;}
	.st23{clip-path:url(#SVGID_46_);fill:#A3D0CE;}
	.st24{clip-path:url(#SVGID_48_);fill:#7DC1C3;}
	.st25{clip-path:url(#SVGID_50_);fill:#90C9C7;}
</style>
<g>
	<g>
		<g>
			<path class="st0" d="M76.8,6c2.5-0.3,5-0.5,7.5-0.5s5,0.2,7.6,0.5v60.7c-2.6,0.3-5.1,0.5-7.5,0.5c-2.5,0-5-0.2-7.6-0.5V6z"/>
			<path class="st0" d="M98.8,6c2.1-0.3,4.1-0.5,6-0.5c2,0,4.2,0.2,6.3,0.5l28.5,38.7V6c2.5-0.3,4.8-0.5,7.1-0.5
				c2.1,0,4.2,0.2,6.1,0.5v60.7c-2.2,0.3-4.2,0.5-5.9,0.5c-1.9,0-4-0.2-6.2-0.5l-28.6-38.6v38.6c-2.2,0.3-4.4,0.5-6.7,0.5
				s-4.4-0.2-6.5-0.5V6H98.8z"/>
			<path class="st0" d="M195.1,56.2h-20.7v-16h21.3c0.4-1.7,0.6-3.5,0.6-5.3c0-1.7-0.2-3.4-0.6-5.2h-21.3V16.5h21.3L188.1,6h-28.7
				v60.7h28.2L195.1,56.2z"/>
		</g>
		<g>
			<path class="st0" d="M36.9,67.4c-5.8,0-10.9-0.8-15.2-2.5c-4.4-1.6-8-3.9-10.9-6.8c-3-2.8-5.1-6.2-6.6-10.1
				c-1.4-3.9-2.1-8.1-2.1-12.7s0.7-8.8,2.1-12.7s3.6-7.3,6.5-10.2s6.5-5.1,10.9-6.8S31,3.1,36.9,3.1c5.8,0,10.9,0.8,15.2,2.5
				c4.4,1.7,8,4,10.9,6.8c2.9,2.9,5.1,6.3,6.5,10.2s2.1,8.1,2.1,12.7s-0.7,8.8-2.1,12.7s-3.6,7.3-6.5,10.2s-6.5,5.1-10.9,6.8
				C47.7,66.6,42.7,67.4,36.9,67.4z M36.9,57.9c6.7,0,11.6-2,14.8-6s4.8-9.5,4.8-16.6s-1.6-12.6-4.8-16.6s-8.1-5.9-14.8-5.9
				s-11.6,2-14.7,5.9c-3.1,4-4.7,9.5-4.7,16.6s1.6,12.7,4.7,16.6C25.3,55.9,30.2,57.9,36.9,57.9z"/>
		</g>
		<g>
			<path class="st0" d="M75.2,66.9c-3.5,0.3-5.3,0.5-8.5,0.5c-3.1,0-6.3-0.2-9.5-0.5L38.6,42.1L56,42.2L75.2,66.9z"/>
		</g>
	</g>
	<g>
		<g>
			<defs>
				<path id="SVGID_1_" d="M214.1,47.3l8.8,11.8l-6.8,9.3l-18-0.1L214.1,47.3z M223.2,12.8L218,6.1l-16.8,0L214.6,24L223.2,12.8z
					 M242,35.6l22-29.5l-18.4,0.1l-22.4,29.3l0.3,0.3v0.1l24.1,32.4l19.4,0L242,35.6z"/>
			</defs>
			<use xlink:href="#SVGID_1_"  style="overflow:visible;fill:#0D83A4;"/>
			<clipPath id="SVGID_2_">
				<use xlink:href="#SVGID_1_"  style="overflow:visible;"/>
			</clipPath>
			<polygon class="st1" points="233.9,70 242.7,69.9 246.8,60.7 			"/>
		</g>
		<g>
			<defs>
				<path id="SVGID_3_" d="M214.1,47.2l8.9,11.9l-6.9,9.3H198L214.1,47.2z M223.3,12.8L218.1,6H201l13.6,18.2L223.3,12.8z
					 M242.1,35.6l22-29.6l-18.6,0.1L223,35.5l0.3,0.3l0,0l24.2,32.5h19.6L242.1,35.6z"/>
			</defs>
			<clipPath id="SVGID_4_">
				<use xlink:href="#SVGID_3_"  style="overflow:visible;"/>
			</clipPath>
			<g transform="matrix(1 0 0 1 0 -7.629395e-06)" class="st2">
				
					<image style="overflow:visible;enable-background:new    ;" width="846" height="858" xlink:href="2E484DD7.png"  transform="matrix(0.2386 0 0 0.2386 442.2837 -123.3709)">
				</image>
			</g>
		</g>
		<g>
			<defs>
				<path id="SVGID_5_" d="M214.1,47.2l8.9,11.9l-6.9,9.3H198L214.1,47.2z M223.3,12.8L218.1,6H201l13.6,18.2L223.3,12.8z
					 M242.1,35.6l22-29.6l-18.6,0.1L223,35.5l0.3,0.3l0,0l24.2,32.5h19.6L242.1,35.6z"/>
			</defs>
			<clipPath id="SVGID_6_">
				<use xlink:href="#SVGID_5_"  style="overflow:visible;"/>
			</clipPath>
			<path class="st3" d="M214.1,47.2l8.9,11.9l-6.9,9.3H198L214.1,47.2z M223.3,12.8L218.1,6H201l13.6,18.2L223.3,12.8z M242.1,35.6
				l22-29.6l-18.6,0.1L223,35.5l0.3,0.3l0,0l24.2,32.5h19.6L242.1,35.6z"/>
		</g>
		<g>
			<defs>
				<path id="SVGID_7_" d="M214.1,47.2l8.9,11.9l-6.9,9.3H198L214.1,47.2z M223.3,12.8L218.1,6H201l13.6,18.2L223.3,12.8z
					 M242.1,35.6l22-29.6l-18.6,0.1L223,35.5l0.3,0.3l0,0l24.2,32.5h19.6L242.1,35.6z"/>
			</defs>
			<clipPath id="SVGID_8_">
				<use xlink:href="#SVGID_7_"  style="overflow:visible;"/>
			</clipPath>
			<polygon class="st4" points="264.5,5.3 244.4,2.3 262,18.2 			"/>
		</g>
		<g>
			<defs>
				<path id="SVGID_9_" d="M214.1,47.2l8.9,11.9l-6.9,9.3H198L214.1,47.2z M223.3,12.8L218.1,6H201l13.6,18.2L223.3,12.8z
					 M242.1,35.6l22-29.6l-18.6,0.1L223,35.5l0.3,0.3l0,0l24.2,32.5h19.6L242.1,35.6z"/>
			</defs>
			<clipPath id="SVGID_10_">
				<use xlink:href="#SVGID_9_"  style="overflow:visible;"/>
			</clipPath>
			<polygon class="st5" points="244.4,2.3 262,18.2 241.1,24.7 			"/>
		</g>
		<g>
			<defs>
				<path id="SVGID_11_" d="M214.1,47.2l8.9,11.9l-6.9,9.3H198L214.1,47.2z M223.3,12.8L218.1,6H201l13.6,18.2L223.3,12.8z
					 M242.1,35.6l22-29.6l-18.6,0.1L223,35.5l0.3,0.3l0,0l24.2,32.5h19.6L242.1,35.6z"/>
			</defs>
			<clipPath id="SVGID_12_">
				<use xlink:href="#SVGID_11_"  style="overflow:visible;"/>
			</clipPath>
			<polygon class="st6" points="237.7,29.5 235.8,14 244.4,2.3 247.4,16.1 			"/>
		</g>
		<g>
			<defs>
				<path id="SVGID_13_" d="M214.1,47.2l8.9,11.9l-6.9,9.3H198L214.1,47.2z M223.3,12.8L218.1,6H201l13.6,18.2L223.3,12.8z
					 M242.1,35.6l22-29.6l-18.6,0.1L223,35.5l0.3,0.3l0,0l24.2,32.5h19.6L242.1,35.6z"/>
			</defs>
			<clipPath id="SVGID_14_">
				<use xlink:href="#SVGID_13_"  style="overflow:visible;"/>
			</clipPath>
			<polygon class="st7" points="226.4,3.9 215.7,24.4 235.8,14 			"/>
		</g>
		<g>
			<defs>
				<path id="SVGID_15_" d="M214.1,47.2l8.9,11.9l-6.9,9.3H198L214.1,47.2z M223.3,12.8L218.1,6H201l13.6,18.2L223.3,12.8z
					 M242.1,35.6l22-29.6l-18.6,0.1L223,35.5l0.3,0.3l0,0l24.2,32.5h19.6L242.1,35.6z"/>
			</defs>
			<clipPath id="SVGID_16_">
				<use xlink:href="#SVGID_15_"  style="overflow:visible;"/>
			</clipPath>
			<polygon class="st8" points="198.2,5.4 215.7,24.4 211.4,-2.9 			"/>
		</g>
		<g>
			<defs>
				<path id="SVGID_17_" d="M214.1,47.2l8.9,11.9l-6.9,9.3H198L214.1,47.2z M223.3,12.8L218.1,6H201l13.6,18.2L223.3,12.8z
					 M242.1,35.6l22-29.6l-18.6,0.1L223,35.5l0.3,0.3l0,0l24.2,32.5h19.6L242.1,35.6z"/>
			</defs>
			<clipPath id="SVGID_18_">
				<use xlink:href="#SVGID_17_"  style="overflow:visible;"/>
			</clipPath>
			<polygon class="st9" points="200.4,33.9 215.7,24.4 198.2,5.4 			"/>
		</g>
		<g>
			<defs>
				<path id="SVGID_19_" d="M214.1,47.2l8.9,11.9l-6.9,9.3H198L214.1,47.2z M223.3,12.8L218.1,6H201l13.6,18.2L223.3,12.8z
					 M242.1,35.6l22-29.6l-18.6,0.1L223,35.5l0.3,0.3l0,0l24.2,32.5h19.6L242.1,35.6z"/>
			</defs>
			<clipPath id="SVGID_20_">
				<use xlink:href="#SVGID_19_"  style="overflow:visible;"/>
			</clipPath>
			<polygon class="st10" points="226.4,3.9 211.4,-2.9 215.7,24.4 			"/>
		</g>
		<g>
			<defs>
				<path id="SVGID_21_" d="M214.1,47.2l8.9,11.9l-6.9,9.3H198L214.1,47.2z M223.3,12.8L218.1,6H201l13.6,18.2L223.3,12.8z
					 M242.1,35.6l22-29.6l-18.6,0.1L223,35.5l0.3,0.3l0,0l24.2,32.5h19.6L242.1,35.6z"/>
			</defs>
			<clipPath id="SVGID_22_">
				<use xlink:href="#SVGID_21_"  style="overflow:visible;"/>
			</clipPath>
			<polygon class="st11" points="210.1,47.5 215.7,24.4 200.4,33.9 			"/>
		</g>
		<g>
			<defs>
				<path id="SVGID_23_" d="M214.1,47.2l8.9,11.9l-6.9,9.3H198L214.1,47.2z M223.3,12.8L218.1,6H201l13.6,18.2L223.3,12.8z
					 M242.1,35.6l22-29.6l-18.6,0.1L223,35.5l0.3,0.3l0,0l24.2,32.5h19.6L242.1,35.6z"/>
			</defs>
			<clipPath id="SVGID_24_">
				<use xlink:href="#SVGID_23_"  style="overflow:visible;"/>
			</clipPath>
			<polygon class="st12" points="238.2,40.3 215.7,24.4 210.1,47.5 			"/>
		</g>
		<g>
			<defs>
				<path id="SVGID_25_" d="M214.1,47.2l8.9,11.9l-6.9,9.3H198L214.1,47.2z M223.3,12.8L218.1,6H201l13.6,18.2L223.3,12.8z
					 M242.1,35.6l22-29.6l-18.6,0.1L223,35.5l0.3,0.3l0,0l24.2,32.5h19.6L242.1,35.6z"/>
			</defs>
			<clipPath id="SVGID_26_">
				<use xlink:href="#SVGID_25_"  style="overflow:visible;"/>
			</clipPath>
			<polygon class="st13" points="237.7,29.5 215.7,24.4 235.8,14 			"/>
		</g>
		<g>
			<defs>
				<path id="SVGID_27_" d="M214.1,47.2l8.9,11.9l-6.9,9.3H198L214.1,47.2z M223.3,12.8L218.1,6H201l13.6,18.2L223.3,12.8z
					 M242.1,35.6l22-29.6l-18.6,0.1L223,35.5l0.3,0.3l0,0l24.2,32.5h19.6L242.1,35.6z"/>
			</defs>
			<clipPath id="SVGID_28_">
				<use xlink:href="#SVGID_27_"  style="overflow:visible;"/>
			</clipPath>
			<polygon class="st14" points="246.7,44.8 237.7,29.5 215.7,24.4 238.2,40.3 246.8,60.7 			"/>
		</g>
		<g>
			<defs>
				<path id="SVGID_29_" d="M214.1,47.2l8.9,11.9l-6.9,9.3H198L214.1,47.2z M223.3,12.8L218.1,6H201l13.6,18.2L223.3,12.8z
					 M242.1,35.6l22-29.6l-18.6,0.1L223,35.5l0.3,0.3l0,0l24.2,32.5h19.6L242.1,35.6z"/>
			</defs>
			<clipPath id="SVGID_30_">
				<use xlink:href="#SVGID_29_"  style="overflow:visible;"/>
			</clipPath>
			<polygon class="st15" points="268.4,39.3 258.7,54.6 246.8,60.8 246.7,44.8 			"/>
		</g>
		<g>
			<defs>
				<path id="SVGID_31_" d="M214.1,47.2l8.9,11.9l-6.9,9.3H198L214.1,47.2z M223.3,12.8L218.1,6H201l13.6,18.2L223.3,12.8z
					 M242.1,35.6l22-29.6l-18.6,0.1L223,35.5l0.3,0.3l0,0l24.2,32.5h19.6L242.1,35.6z"/>
			</defs>
			<clipPath id="SVGID_32_">
				<use xlink:href="#SVGID_31_"  style="overflow:visible;"/>
			</clipPath>
			<polygon class="st16" points="262,18.2 268.4,39.3 246.7,44.8 237.7,29.5 241.1,24.7 			"/>
		</g>
		<g>
			<defs>
				<path id="SVGID_33_" d="M214.1,47.2l8.9,11.9l-6.9,9.3H198L214.1,47.2z M223.3,12.8L218.1,6H201l13.6,18.2L223.3,12.8z
					 M242.1,35.6l22-29.6l-18.6,0.1L223,35.5l0.3,0.3l0,0l24.2,32.5h19.6L242.1,35.6z"/>
			</defs>
			<clipPath id="SVGID_34_">
				<use xlink:href="#SVGID_33_"  style="overflow:visible;"/>
			</clipPath>
			<polygon class="st17" points="233.9,70 238.2,40.3 210.1,47.5 214.6,66.2 			"/>
		</g>
		<g>
			<defs>
				<path id="SVGID_35_" d="M214.1,47.2l8.9,11.9l-6.9,9.3H198L214.1,47.2z M223.3,12.8L218.1,6H201l13.6,18.2L223.3,12.8z
					 M242.1,35.6l22-29.6l-18.6,0.1L223,35.5l0.3,0.3l0,0l24.2,32.5h19.6L242.1,35.6z"/>
			</defs>
			<clipPath id="SVGID_36_">
				<use xlink:href="#SVGID_35_"  style="overflow:visible;"/>
			</clipPath>
			<polygon class="st18" points="246.8,60.7 233.9,70 238.2,40.3 			"/>
		</g>
		<g>
			<defs>
				<path id="SVGID_37_" d="M214.1,47.2l8.9,11.9l-6.9,9.3H198L214.1,47.2z M223.3,12.8L218.1,6H201l13.6,18.2L223.3,12.8z
					 M242.1,35.6l22-29.6l-18.6,0.1L223,35.5l0.3,0.3l0,0l24.2,32.5h19.6L242.1,35.6z"/>
			</defs>
			<clipPath id="SVGID_38_">
				<use xlink:href="#SVGID_37_"  style="overflow:visible;"/>
			</clipPath>
			<polygon class="st19" points="268.4,69 246.8,60.7 258.7,54.6 			"/>
		</g>
		<g>
			<defs>
				<path id="SVGID_39_" d="M214.1,47.2l8.9,11.9l-6.9,9.3H198L214.1,47.2z M223.3,12.8L218.1,6H201l13.6,18.2L223.3,12.8z
					 M242.1,35.6l22-29.6l-18.6,0.1L223,35.5l0.3,0.3l0,0l24.2,32.5h19.6L242.1,35.6z"/>
			</defs>
			<clipPath id="SVGID_40_">
				<use xlink:href="#SVGID_39_"  style="overflow:visible;"/>
			</clipPath>
			<polygon class="st20" points="210.1,47.5 201.7,54.1 202.7,61.8 214.6,66.2 			"/>
		</g>
		<g>
			<defs>
				<path id="SVGID_41_" d="M214.1,47.2l8.9,11.9l-6.9,9.3H198L214.1,47.2z M223.3,12.8L218.1,6H201l13.6,18.2L223.3,12.8z
					 M242.1,35.6l22-29.6l-18.6,0.1L223,35.5l0.3,0.3l0,0l24.2,32.5h19.6L242.1,35.6z"/>
			</defs>
			<clipPath id="SVGID_42_">
				<use xlink:href="#SVGID_41_"  style="overflow:visible;"/>
			</clipPath>
			<polygon class="st21" points="205.6,76.4 202.7,61.8 214.6,66.2 			"/>
		</g>
		<g>
			<defs>
				<path id="SVGID_43_" d="M214.1,47.2l8.9,11.9l-6.9,9.3H198L214.1,47.2z M223.3,12.8L218.1,6H201l13.6,18.2L223.3,12.8z
					 M242.1,35.6l22-29.6l-18.6,0.1L223,35.5l0.3,0.3l0,0l24.2,32.5h19.6L242.1,35.6z"/>
			</defs>
			<clipPath id="SVGID_44_">
				<use xlink:href="#SVGID_43_"  style="overflow:visible;"/>
			</clipPath>
			<polygon class="st22" points="233.9,70 214.6,66.2 205.6,76.4 			"/>
		</g>
		<g>
			<defs>
				<path id="SVGID_45_" d="M214.1,47.2l8.9,11.9l-6.9,9.3H198L214.1,47.2z M223.3,12.8L218.1,6H201l13.6,18.2L223.3,12.8z
					 M242.1,35.6l22-29.6l-18.6,0.1L223,35.5l0.3,0.3l0,0l24.2,32.5h19.6L242.1,35.6z"/>
			</defs>
			<clipPath id="SVGID_46_">
				<use xlink:href="#SVGID_45_"  style="overflow:visible;"/>
			</clipPath>
			<polygon class="st23" points="201.7,54.1 187.5,69.1 205.6,76.4 			"/>
		</g>
		<g>
			<defs>
				<path id="SVGID_47_" d="M214.1,47.2l8.9,11.9l-6.9,9.3H198L214.1,47.2z M223.3,12.8L218.1,6H201l13.6,18.2L223.3,12.8z
					 M242.1,35.6l22-29.6l-18.6,0.1L223,35.5l0.3,0.3l0,0l24.2,32.5h19.6L242.1,35.6z"/>
			</defs>
			<clipPath id="SVGID_48_">
				<use xlink:href="#SVGID_47_"  style="overflow:visible;"/>
			</clipPath>
			<polygon class="st24" points="268.4,69 242.7,69.9 246.8,60.7 			"/>
		</g>
		<g>
			<defs>
				<path id="SVGID_49_" d="M214.1,47.2l8.9,11.9l-6.9,9.3H198L214.1,47.2z M223.3,12.8L218.1,6H201l13.6,18.2L223.3,12.8z
					 M242.1,35.6l22-29.6l-18.6,0.1L223,35.5l0.3,0.3l0,0l24.2,32.5h19.6L242.1,35.6z"/>
			</defs>
			<clipPath id="SVGID_50_">
				<use xlink:href="#SVGID_49_"  style="overflow:visible;"/>
			</clipPath>
			<polygon class="st25" points="233.9,70 242.7,69.9 246.8,60.7 			"/>
		</g>
	</g>
</g>
</svg>
